<?xml version="1.0" encoding="UTF-8" standalone="no"?>
<svg xmlns="http://www.w3.org/2000/svg" version="1.1" viewBox="0 0 1280 1280" height="512px" width="512px">
<!-- Lua Logo Copyright: see https://www.lua.org/ for more information
Copyright © 1998 Lua.org. Graphic design by Alexandre Nakonechnyj.

Permission is hereby granted, without written agreement and without license or royalty fees, to use, copy, and distribute this logo for any purpose, including commercial applications, subject to the following conditions:

    The origin of this logo must not be misrepresented; you must not claim that you drew the original logo.
    The only modification you can make is to adapt the orbiting text to your product name.
    The logo can be used in any scale as long as the relative proportions of its elements are maintained. 
-->
	<circle cx="643"  cy="642" r="485" fill="#5F172C" stroke="none"/>
	<circle cx="1126" cy="156" r="140" fill="#5F172C" stroke="none"/>
	<circle cx="842"  cy="442" r="140" fill="#FFFFFF" stroke="none"/>
	<path d="M 1200 364 a 622,625 0,1,1 -268,-276" fill="none" stroke="#BFBFBF" stroke-dasharray="44, 64.8" stroke-width="15" stroke-linecap="round"/>
	<path d="
			M 316,566 h40 v284 h156 v34 h-194 Z
			m 236,92 v188 c 0,40 86,86 146,4 v32 h32 v-224 h-34 v140 c -6,66 -110,94 -110,20 v-160 Z
			m 242,66 q0,-72 86,-72 q86,0 86,72 v126 q0,22 28,18 v26 c-42,0 -60,0 -60,-34 q-36,34 -84,34 q-66,0 -66,-66 c0,-104 154,-52 152,-104 q0,-38 -56,-38 q-56,0 -56,38 Z
				m 140,44 c0,20 -114,0 -114,64 q0,32 44,32 c40,0 70,-24 70,-52 Z
	" fill="#FFFFFF" stroke="none"/>
</svg>
